<svg width="118" height="202" viewBox="0 0 118 202" fill="none" xmlns="http://www.w3.org/2000/svg">
<g clip-path="url(#clip0_402_357)">
<path d="M59.9609 3.50391C81.6798 3.29616 97.9257 10.9833 106.758 26.5166L107.138 27.1973C114.733 41.0999 114.982 58.5931 112.367 75.3896L112.101 77.04C106.322 111.628 87.2716 152.102 71.3457 179.487L70.625 180.727L69.1914 180.73L49.1914 180.789L47.7666 180.793L47.0371 179.568C31.3481 153.23 12.6468 114.36 6.55078 80.3682L6.26953 78.7539C3.31985 61.221 3.41882 42.8023 11.5488 28.1631L11.9658 27.4277C20.8418 12.0913 36.999 3.97979 58.9219 3.52051L59.9609 3.50391ZM60.1914 28.5029L59.4453 28.5146C51.4339 28.6825 45.7709 30.1435 41.7178 32.2637C37.9499 34.2346 35.4628 36.8327 33.7393 39.7197L33.4043 40.3008C29.398 47.5147 28.3019 59.0278 30.9229 74.6064L31.1289 75.793C35.3181 99.3386 46.8933 126.85 59.0625 149.906C71.5256 125.83 83.4086 97.0654 87.4424 72.9199L87.6787 71.4541C89.9292 56.922 88.89 46.2479 85.3848 39.5312L85.0254 38.8721C83.3801 35.9787 80.9371 33.3618 77.0244 31.4766C73.1933 29.6307 67.8218 28.4237 60.1914 28.5029Z" fill="#93642F" stroke="black" stroke-width="5"/>
<path d="M83.2205 172.195C83.855 178.245 80.1638 183.913 74.3736 185.778L47.819 194.334C40.0451 196.838 31.9359 191.556 31.0841 183.434V183.434C30.4496 177.383 34.1408 171.716 39.931 169.851L66.4856 161.295C74.2595 158.791 82.3687 164.072 83.2205 172.195V172.195Z" fill="#93642F" stroke="black" stroke-width="5"/>
<path d="M84.697 176.049C82.6223 183.009 75.0276 186.694 68.2771 184.016L32.0817 169.656C26.1214 167.292 22.9551 160.766 24.7869 154.621V154.621C26.8616 147.661 34.4563 143.976 41.2069 146.654L77.4023 161.013C83.3626 163.378 86.5289 169.904 84.697 176.049V176.049Z" fill="#93642F" stroke="black" stroke-width="5"/>
</g>
<defs>
<clipPath id="clip0_402_357">
<rect width="118" height="202" fill="white"/>
</clipPath>
</defs>
</svg>
